<svg xmlns="http://www.w3.org/2000/svg" width="1920" height="1080" viewBox="0 0 1920 1080">
  <defs>
    <style>
      .cls-1 {
        fill: #fff;
        fill-rule: evenodd;
      }
    </style>
  </defs>
  <path id="ES3D" class="cls-1" d="M644.286,519.066l3.211-18.2,82.4,0.05,28.819-30.382-105.8-.065,2.81-16,86.6,0.053,33.021-34.78-154.8-.094L596.665,553.437l128.8,0.079,32.821-34.38Zm187.427-45.885q-12.8-.009-12.8-7.608,0-6,3.806-8.5t12.2-2.492l92.8,0.056,32.821-34.78-116.2-.071q-17.6-.01-30,3.582t-20.306,10.088a38.746,38.746,0,0,0-11.509,15.193,48.928,48.928,0,0,0-3.612,18.9q-0.009,14.6,10.586,23.407t33.4,8.82l73,0.045q12.6,0.007,12.6,8.007,0,5.8-3.806,8.6t-12.2,2.793l-101.4-.062-32.621,34.38,124.6,0.076q17.8,0.011,30.3-3.682t20.406-10.387a39.509,39.509,0,0,0,11.51-15.893,54.391,54.391,0,0,0,3.612-20q0.009-15-11.286-22.707t-33.095-7.72Zm116.35,80.471,117.8,0.071q19.2,0.012,31.21-3.881t18.9-10.188a32.407,32.407,0,0,0,9.41-14.194,52.942,52.942,0,0,0,2.51-16.1q0-9.8-4.69-16a23.16,23.16,0,0,0-11.89-8.407,36.087,36.087,0,0,0,8.6-4.1,32.175,32.175,0,0,0,7.6-6.895,34.82,34.82,0,0,0,5.51-9.8,36.493,36.493,0,0,0,2.11-12.8q0-15.6-12.29-23.508t-34.1-7.921l-83.8-.051-32.816,34.78,112,0.069a16.106,16.106,0,0,1,7.1,1.5q3.1,1.5,3.1,5.5,0,6-4.01,8.3a18.1,18.1,0,0,1-9.2,2.3l-59.4-.037L995.1,500.88l80.2,0.049q11.6,0.008,11.59,7.607a9.526,9.526,0,0,1-3.6,8q-3.615,2.8-11.21,2.793l-91.6-.056Zm371.257-99.774a51.931,51.931,0,0,0-14.19-17.909,67.746,67.746,0,0,0-22.09-11.713,92.388,92.388,0,0,0-28.7-4.218l-63.2-.038-32.62,34.78,89.6,0.055a43.76,43.76,0,0,1,13.9,2.108,32.493,32.493,0,0,1,10.8,5.907,26.886,26.886,0,0,1,6.99,9,25.939,25.939,0,0,1,2.5,11.4,30.663,30.663,0,0,1-3.61,14.7,36.528,36.528,0,0,1-9.71,11.494,44.514,44.514,0,0,1-14.41,7.392,59.513,59.513,0,0,1-17.9,2.589l-48-.03,8.63-48.994-41.4-.026-14.85,83.391,89.6,0.055a108.028,108.028,0,0,0,36.21-5.978,99.15,99.15,0,0,0,29.81-16.382,78.585,78.585,0,0,0,20.21-24.387,63.68,63.68,0,0,0,7.42-30.2A52.45,52.45,0,0,0,1319.32,453.878Z"/>
  <path id="XPERIENCE" class="cls-1" d="M767.016,658.454h15.8l11.8-16.4,10.067,16.4h15.933l-18.733-26.8,16.6-23.467H802.35l-8.4,13-6.8-13H771.016l15.667,23.467Zm71.933-39.733h4.333q7.2,0,7.2,6.266t-7.2,6.267h-4.333V618.721Zm0,23.066h7.733q8.466,0,12.967-4.4t4.5-12.4q0-8-4.5-12.4t-12.967-4.4h-20.8v50.267h13.067V641.787Zm60.732-33.6h-28.6v50.267h28.6V647.387H884.148v-8.666h14.667V627.654H884.148v-8.4h15.533V608.187Zm22.467,10.067h2.466a9.531,9.531,0,0,1,5.934,1.6,6.154,6.154,0,0,1,0,9.2,9.531,9.531,0,0,1-5.934,1.6h-2.466v-12.4Zm12.933,19.6a13.932,13.932,0,0,0,8.167-4.833,14.751,14.751,0,0,0,2.766-9.3,17.208,17.208,0,0,0-1.033-6,13.807,13.807,0,0,0-8.233-8.3,19.969,19.969,0,0,0-7.334-1.234H909.081v50.267h13.067V639.121l12.466,19.333h16.267Zm21.267-29.667v50.267h13.066V608.187H956.348Zm52.2,0h-28.6v50.267h28.6V647.387H993.014v-8.666h14.666V627.654H993.014v-8.4h15.536V608.187Zm22.46,50.267V627.721l24.14,30.733h13V608.187h-13v30.734l-24.14-30.734h-13.06v50.267h13.06Zm84.54-49.067a36.219,36.219,0,0,0-6.1-1.966,27.632,27.632,0,0,0-5.9-.634,26.4,26.4,0,0,0-24.3,15.767,27.128,27.128,0,0,0,.03,21.333,27.6,27.6,0,0,0,5.83,8.467,26.244,26.244,0,0,0,18.37,7.5,27.094,27.094,0,0,0,5.13-.5,38.322,38.322,0,0,0,5.6-1.567l1.34-.466V641.854q-5.01,5.334-11.27,5.333a13.353,13.353,0,0,1-12.5-8.4,14.486,14.486,0,0,1-1.03-5.533,14.32,14.32,0,0,1,1.03-5.467,13,13,0,0,1,7.13-7.266,13.731,13.731,0,0,1,5.44-1.067,13.964,13.964,0,0,1,11.2,5.533v-15.6Zm36.86-1.2h-28.6v50.267h28.6V647.387h-15.53v-8.666h14.67V627.654h-14.67v-8.4h15.53V608.187Z"/>
</svg>
