<svg width="302" height="469" viewBox="0 0 302 469" fill="none" xmlns="http://www.w3.org/2000/svg">
<path d="M144.368 285H141.056V274.296H144.368V285ZM157.278 285.176C157.065 285.176 156.851 285.139 156.638 285.064C156.435 285 156.206 284.845 155.95 284.6L149.39 278.712V285H146.382V276.12C146.382 275.768 146.43 275.464 146.526 275.208C146.633 274.952 146.766 274.744 146.926 274.584C147.097 274.424 147.289 274.307 147.502 274.232C147.726 274.157 147.955 274.12 148.19 274.12C148.393 274.12 148.595 274.157 148.798 274.232C149.011 274.296 149.251 274.451 149.518 274.696L156.078 280.584V274.296H159.102V283.16C159.102 283.512 159.049 283.816 158.942 284.072C158.846 284.328 158.713 284.541 158.542 284.712C158.382 284.872 158.19 284.989 157.966 285.064C157.742 285.139 157.513 285.176 157.278 285.176ZM174.351 274.296L172.207 277.08H168.383V285H165.071V277.08H160.047L162.191 274.296H174.351ZM187.784 282.248L185.656 285H175.352V274.296H187.752L185.608 277.08H178.68V278.36H187.16L185.256 280.792H178.68V282.248H187.784ZM204.098 285H199.666L197.282 282.168H192.194V285H188.882V279.528H198.194C198.706 279.528 199.138 279.421 199.49 279.208C199.842 278.995 200.018 278.701 200.018 278.328C200.018 277.912 199.858 277.603 199.538 277.4C199.218 277.187 198.77 277.08 198.194 277.08H188.882L191.042 274.296H197.922C198.53 274.296 199.16 274.355 199.81 274.472C200.461 274.579 201.053 274.776 201.586 275.064C202.12 275.352 202.557 275.741 202.898 276.232C203.25 276.723 203.426 277.352 203.426 278.12C203.426 278.536 203.362 278.931 203.234 279.304C203.106 279.677 202.92 280.013 202.674 280.312C202.44 280.611 202.146 280.867 201.794 281.08C201.453 281.283 201.064 281.427 200.626 281.512C200.808 281.651 201.01 281.827 201.234 282.04C201.458 282.253 201.757 282.547 202.13 282.92L204.098 285ZM209.817 285L211.817 282.248H214.505C214.825 282.248 215.156 282.248 215.497 282.248C215.849 282.248 216.153 282.259 216.409 282.28C216.26 282.088 216.084 281.848 215.881 281.56C215.689 281.261 215.503 280.984 215.321 280.728L213.401 277.896L208.377 285H204.457L211.321 275.32C211.545 275.011 211.828 274.733 212.169 274.488C212.511 274.243 212.943 274.12 213.465 274.12C213.967 274.12 214.383 274.237 214.713 274.472C215.055 274.696 215.343 274.979 215.577 275.32L222.265 285H209.817ZM228.413 278.312H235.261V285H227.917C226.989 285 226.13 284.861 225.341 284.584C224.552 284.307 223.869 283.928 223.293 283.448C222.728 282.957 222.28 282.381 221.949 281.72C221.629 281.048 221.469 280.323 221.469 279.544C221.469 278.765 221.629 278.056 221.949 277.416C222.28 276.765 222.728 276.211 223.293 275.752C223.869 275.283 224.552 274.925 225.341 274.68C226.13 274.424 226.989 274.296 227.917 274.296H235.581L233.437 277.08H227.917C227.469 277.08 227.053 277.144 226.669 277.272C226.285 277.4 225.949 277.581 225.661 277.816C225.384 278.051 225.165 278.328 225.005 278.648C224.845 278.957 224.765 279.304 224.765 279.688C224.765 280.072 224.84 280.424 224.989 280.744C225.149 281.053 225.368 281.32 225.645 281.544C225.933 281.768 226.269 281.944 226.653 282.072C227.037 282.189 227.458 282.248 227.917 282.248H231.965V280.696H226.429L228.413 278.312ZM240.524 285H237.212V274.296H240.524V285ZM257.77 285H253.338L250.954 282.168H245.866V285H242.554V279.528H251.866C252.378 279.528 252.81 279.421 253.162 279.208C253.514 278.995 253.69 278.701 253.69 278.328C253.69 277.912 253.53 277.603 253.21 277.4C252.89 277.187 252.442 277.08 251.866 277.08H242.554L244.714 274.296H251.594C252.202 274.296 252.831 274.355 253.482 274.472C254.133 274.579 254.725 274.776 255.258 275.064C255.791 275.352 256.229 275.741 256.57 276.232C256.922 276.723 257.098 277.352 257.098 278.12C257.098 278.536 257.034 278.931 256.906 279.304C256.778 279.677 256.591 280.013 256.346 280.312C256.111 280.611 255.818 280.867 255.466 281.08C255.125 281.283 254.735 281.427 254.298 281.512C254.479 281.651 254.682 281.827 254.906 282.04C255.13 282.253 255.429 282.547 255.802 282.92L257.77 285Z" fill="white"/>
<path d="M155.136 359.312C155.136 359.909 155.019 360.453 154.784 360.944C154.549 361.424 154.203 361.835 153.744 362.176C153.296 362.517 152.747 362.784 152.096 362.976C151.445 363.168 150.704 363.264 149.872 363.264H144.272V366H140.976V360.528H150.192C150.704 360.528 151.099 360.416 151.376 360.192C151.664 359.968 151.808 359.669 151.808 359.296C151.808 358.923 151.664 358.629 151.376 358.416C151.099 358.192 150.704 358.08 150.192 358.08H140.976L143.168 355.296H149.888C150.72 355.296 151.461 355.397 152.112 355.6C152.763 355.792 153.312 356.064 153.76 356.416C154.208 356.768 154.549 357.189 154.784 357.68C155.019 358.171 155.136 358.715 155.136 359.312ZM158.817 366L160.817 363.248H163.505C163.825 363.248 164.156 363.248 164.497 363.248C164.849 363.248 165.153 363.259 165.409 363.28C165.26 363.088 165.084 362.848 164.881 362.56C164.689 362.261 164.503 361.984 164.321 361.728L162.401 358.896L157.377 366H153.457L160.321 356.32C160.545 356.011 160.828 355.733 161.169 355.488C161.511 355.243 161.943 355.12 162.465 355.12C162.967 355.12 163.383 355.237 163.713 355.472C164.055 355.696 164.343 355.979 164.577 356.32L171.265 366H158.817ZM185.084 361.328C185.084 364.56 182.86 366.176 178.412 366.176C177.121 366.176 176.012 366.075 175.084 365.872C174.156 365.669 173.388 365.365 172.78 364.96C172.183 364.555 171.74 364.053 171.452 363.456C171.175 362.848 171.036 362.139 171.036 361.328V355.296H174.332V361.328C174.332 361.723 174.385 362.053 174.492 362.32C174.599 362.587 174.796 362.805 175.084 362.976C175.383 363.136 175.799 363.253 176.332 363.328C176.865 363.392 177.559 363.424 178.412 363.424C179.052 363.424 179.585 363.387 180.012 363.312C180.439 363.237 180.78 363.115 181.036 362.944C181.292 362.773 181.473 362.555 181.58 362.288C181.697 362.021 181.756 361.701 181.756 361.328V355.296H185.084V361.328ZM196.881 359.568C198.193 359.568 199.19 359.813 199.873 360.304C200.556 360.784 200.897 361.515 200.897 362.496C200.897 363.04 200.812 363.531 200.641 363.968C200.47 364.405 200.198 364.773 199.825 365.072C199.452 365.371 198.972 365.6 198.385 365.76C197.809 365.92 197.116 366 196.305 366H186.337L188.465 363.248H196.561C196.956 363.248 197.244 363.189 197.425 363.072C197.606 362.944 197.697 362.741 197.697 362.464C197.697 362.187 197.606 361.989 197.425 361.872C197.244 361.755 196.956 361.696 196.561 361.696H190.737C190.044 361.696 189.446 361.621 188.945 361.472C188.444 361.323 188.028 361.115 187.697 360.848C187.366 360.581 187.121 360.261 186.961 359.888C186.801 359.504 186.721 359.083 186.721 358.624C186.721 358.123 186.806 357.669 186.977 357.264C187.158 356.848 187.43 356.496 187.793 356.208C188.166 355.92 188.641 355.696 189.217 355.536C189.804 355.376 190.502 355.296 191.313 355.296H200.609L198.481 358.08H191.057C190.673 358.08 190.385 358.133 190.193 358.24C190.012 358.347 189.921 358.539 189.921 358.816C189.921 359.093 190.012 359.291 190.193 359.408C190.385 359.515 190.673 359.568 191.057 359.568H196.881ZM214.799 363.248L212.671 366H202.367V355.296H214.767L212.623 358.08H205.695V359.36H214.175L212.271 361.792H205.695V363.248H214.799Z" fill="white"/>
<path d="M150.928 441.568C152.24 441.568 153.237 441.813 153.92 442.304C154.603 442.784 154.944 443.515 154.944 444.496C154.944 445.04 154.859 445.531 154.688 445.968C154.517 446.405 154.245 446.773 153.872 447.072C153.499 447.371 153.019 447.6 152.432 447.76C151.856 447.92 151.163 448 150.352 448H140.384L142.512 445.248H150.608C151.003 445.248 151.291 445.189 151.472 445.072C151.653 444.944 151.744 444.741 151.744 444.464C151.744 444.187 151.653 443.989 151.472 443.872C151.291 443.755 151.003 443.696 150.608 443.696H144.784C144.091 443.696 143.493 443.621 142.992 443.472C142.491 443.323 142.075 443.115 141.744 442.848C141.413 442.581 141.168 442.261 141.008 441.888C140.848 441.504 140.768 441.083 140.768 440.624C140.768 440.123 140.853 439.669 141.024 439.264C141.205 438.848 141.477 438.496 141.84 438.208C142.213 437.92 142.688 437.696 143.264 437.536C143.851 437.376 144.549 437.296 145.36 437.296H154.656L152.528 440.08H145.104C144.72 440.08 144.432 440.133 144.24 440.24C144.059 440.347 143.968 440.539 143.968 440.816C143.968 441.093 144.059 441.291 144.24 441.408C144.432 441.515 144.72 441.568 145.104 441.568H150.928ZM163.902 437.12C166.505 437.12 168.457 437.563 169.758 438.448C171.07 439.333 171.726 440.731 171.726 442.64C171.726 444.56 171.076 445.963 169.774 446.848C168.473 447.733 166.516 448.176 163.902 448.176C161.278 448.176 159.316 447.733 158.014 446.848C156.724 445.963 156.078 444.56 156.078 442.64C156.078 440.731 156.729 439.333 158.03 438.448C159.332 437.563 161.289 437.12 163.902 437.12ZM163.902 445.392C164.734 445.392 165.438 445.36 166.014 445.296C166.59 445.221 167.054 445.083 167.406 444.88C167.769 444.677 168.03 444.4 168.19 444.048C168.35 443.685 168.43 443.216 168.43 442.64C168.43 442.064 168.35 441.6 168.19 441.248C168.03 440.885 167.769 440.608 167.406 440.416C167.054 440.213 166.59 440.08 166.014 440.016C165.438 439.941 164.734 439.904 163.902 439.904C163.07 439.904 162.366 439.941 161.79 440.016C161.214 440.08 160.745 440.213 160.382 440.416C160.03 440.608 159.774 440.885 159.614 441.248C159.454 441.6 159.374 442.064 159.374 442.64C159.374 443.216 159.454 443.685 159.614 444.048C159.774 444.4 160.03 444.677 160.382 444.88C160.745 445.083 161.214 445.221 161.79 445.296C162.366 445.36 163.07 445.392 163.902 445.392ZM184.247 448.176C184.033 448.176 183.82 448.139 183.607 448.064C183.404 448 183.175 447.845 182.919 447.6L176.359 441.712V448H173.351V439.12C173.351 438.768 173.399 438.464 173.495 438.208C173.601 437.952 173.735 437.744 173.895 437.584C174.065 437.424 174.257 437.307 174.471 437.232C174.695 437.157 174.924 437.12 175.159 437.12C175.361 437.12 175.564 437.157 175.767 437.232C175.98 437.296 176.22 437.451 176.487 437.696L183.047 443.584V437.296H186.071V446.16C186.071 446.512 186.017 446.816 185.911 447.072C185.815 447.328 185.681 447.541 185.511 447.712C185.351 447.872 185.159 447.989 184.935 448.064C184.711 448.139 184.481 448.176 184.247 448.176ZM201.637 437.12C204.239 437.12 206.191 437.563 207.493 438.448C208.805 439.333 209.461 440.731 209.461 442.64C209.461 444.56 208.81 445.963 207.509 446.848C206.207 447.733 204.25 448.176 201.637 448.176C199.013 448.176 197.05 447.733 195.749 446.848C194.458 445.963 193.813 444.56 193.813 442.64C193.813 440.731 194.463 439.333 195.765 438.448C197.066 437.563 199.023 437.12 201.637 437.12ZM201.637 445.392C202.469 445.392 203.173 445.36 203.749 445.296C204.325 445.221 204.789 445.083 205.141 444.88C205.503 444.677 205.765 444.4 205.925 444.048C206.085 443.685 206.165 443.216 206.165 442.64C206.165 442.064 206.085 441.6 205.925 441.248C205.765 440.885 205.503 440.608 205.141 440.416C204.789 440.213 204.325 440.08 203.749 440.016C203.173 439.941 202.469 439.904 201.637 439.904C200.805 439.904 200.101 439.941 199.525 440.016C198.949 440.08 198.479 440.213 198.117 440.416C197.765 440.608 197.509 440.885 197.349 441.248C197.189 441.6 197.109 442.064 197.109 442.64C197.109 443.216 197.189 443.685 197.349 444.048C197.509 444.4 197.765 444.677 198.117 444.88C198.479 445.083 198.949 445.221 199.525 445.296C200.101 445.36 200.805 445.392 201.637 445.392ZM223.133 437.296L220.989 440.08H214.461V441.472H222.525L220.509 444.08H214.461V448H211.133V437.296H223.133ZM236.258 437.296L234.114 440.08H227.586V441.472H235.65L233.634 444.08H227.586V448H224.258V437.296H236.258ZM242.115 436.704L236.627 448.608H234.562L240.163 436.704H242.115ZM249.777 437.12C252.38 437.12 254.332 437.563 255.633 438.448C256.945 439.333 257.601 440.731 257.601 442.64C257.601 444.56 256.951 445.963 255.649 446.848C254.348 447.733 252.391 448.176 249.777 448.176C247.153 448.176 245.191 447.733 243.889 446.848C242.599 445.963 241.953 444.56 241.953 442.64C241.953 440.731 242.604 439.333 243.905 438.448C245.207 437.563 247.164 437.12 249.777 437.12ZM249.777 445.392C250.609 445.392 251.313 445.36 251.889 445.296C252.465 445.221 252.929 445.083 253.281 444.88C253.644 444.677 253.905 444.4 254.065 444.048C254.225 443.685 254.305 443.216 254.305 442.64C254.305 442.064 254.225 441.6 254.065 441.248C253.905 440.885 253.644 440.608 253.281 440.416C252.929 440.213 252.465 440.08 251.889 440.016C251.313 439.941 250.609 439.904 249.777 439.904C248.945 439.904 248.241 439.941 247.665 440.016C247.089 440.08 246.62 440.213 246.257 440.416C245.905 440.608 245.649 440.885 245.489 441.248C245.329 441.6 245.249 442.064 245.249 442.64C245.249 443.216 245.329 443.685 245.489 444.048C245.649 444.4 245.905 444.677 246.257 444.88C246.62 445.083 247.089 445.221 247.665 445.296C248.241 445.36 248.945 445.392 249.777 445.392ZM270.122 448.176C269.908 448.176 269.695 448.139 269.482 448.064C269.279 448 269.05 447.845 268.794 447.6L262.234 441.712V448H259.226V439.12C259.226 438.768 259.274 438.464 259.37 438.208C259.476 437.952 259.61 437.744 259.77 437.584C259.94 437.424 260.132 437.307 260.346 437.232C260.57 437.157 260.799 437.12 261.034 437.12C261.236 437.12 261.439 437.157 261.642 437.232C261.855 437.296 262.095 437.451 262.362 437.696L268.922 443.584V437.296H271.946V446.16C271.946 446.512 271.892 446.816 271.786 447.072C271.69 447.328 271.556 447.541 271.386 447.712C271.226 447.872 271.034 447.989 270.81 448.064C270.586 448.139 270.356 448.176 270.122 448.176Z" fill="white"/>
<path d="M125.074 17.0174L137.882 3.27295C138.639 2.46106 139.699 2 140.809 2H173C175.209 2 177 3.79086 177 6V48C177 50.2091 175.209 52 173 52H128C125.791 52 124 50.2091 124 48V19.7445C124 18.7324 124.384 17.7579 125.074 17.0174Z" fill="#1F0643" fill-opacity="0.1" stroke="#CC33D8" stroke-width="4"/>
<path d="M41.0737 432.017L53.8823 418.273C54.639 417.461 55.6989 417 56.8086 417H89C91.2091 417 93 418.791 93 421V463C93 465.209 91.2091 467 89 467H44C41.7909 467 40 465.209 40 463V434.744C40 433.732 40.3837 432.758 41.0737 432.017Z" fill="#1F0643" fill-opacity="0.1" stroke="#CC33D8" stroke-width="4"/>
<path d="M41.0737 350.017L53.8823 336.273C54.639 335.461 55.6989 335 56.8086 335H89C91.2091 335 93 336.791 93 339V381C93 383.209 91.2091 385 89 385H44C41.7909 385 40 383.209 40 381V352.744C40 351.732 40.3837 350.758 41.0737 350.017Z" fill="#1F0643" fill-opacity="0.1" stroke="#CC33D8" stroke-width="4"/>
<path d="M42.0737 269.017L54.8823 255.273C55.639 254.461 56.6989 254 57.8086 254H90C92.2091 254 94 255.791 94 258V300C94 302.209 92.2091 304 90 304H45C42.7909 304 41 302.209 41 300V271.744C41 270.732 41.3837 269.758 42.0737 269.017Z" fill="#1F0643" fill-opacity="0.1" stroke="#CC33D8" stroke-width="4"/>
<path d="M158.384 35.5H143.168C142.544 35.5 142 35.332 141.536 34.996C141.088 34.644 140.864 34.14 140.864 33.484C140.864 33.116 140.96 32.764 141.152 32.428C141.344 32.076 141.608 31.764 141.944 31.492L147.8 26.884C148.472 26.356 149.048 25.908 149.528 25.54C150.008 25.156 150.424 24.836 150.776 24.58C151.128 24.308 151.416 24.092 151.64 23.932C151.88 23.772 152.072 23.636 152.216 23.524C151.992 23.54 151.728 23.556 151.424 23.572C151.136 23.588 150.768 23.604 150.32 23.62C149.888 23.62 149.376 23.62 148.784 23.62C148.192 23.62 147.496 23.62 146.696 23.62H140.264L143.432 19.444H158.24C158.864 19.444 159.4 19.62 159.848 19.972C160.312 20.308 160.544 20.804 160.544 21.46C160.544 21.828 160.448 22.188 160.256 22.54C160.064 22.876 159.8 23.172 159.464 23.428L153.536 28.132C152.88 28.66 152.312 29.108 151.832 29.476C151.352 29.844 150.936 30.164 150.584 30.436C150.248 30.692 149.968 30.9 149.744 31.06C149.52 31.22 149.328 31.356 149.168 31.468C149.36 31.452 149.68 31.444 150.128 31.444C150.592 31.428 151.12 31.42 151.712 31.42C152.304 31.404 152.936 31.396 153.608 31.396C154.28 31.38 154.928 31.372 155.552 31.372H161.384L158.384 35.5Z" fill="white"/>
<path d="M209.074 99.0174L221.882 85.273C222.639 84.4611 223.699 84 224.809 84H257C259.209 84 261 85.7909 261 88V130C261 132.209 259.209 134 257 134H212C209.791 134 208 132.209 208 130V101.744C208 100.732 208.384 99.7579 209.074 99.0174Z" fill="#1F0643" fill-opacity="0.1" stroke="#CC33D8" stroke-width="4"/>
<path d="M245.436 109.316C245.436 110.484 245.188 111.572 244.692 112.58C244.212 113.572 243.54 114.436 242.676 115.172C241.828 115.892 240.812 116.46 239.628 116.876C238.444 117.292 237.156 117.5 235.764 117.5H225.012V107.492H230.004V113.372H235.764C236.452 113.372 237.084 113.284 237.66 113.108C238.252 112.916 238.756 112.652 239.172 112.316C239.588 111.98 239.916 111.58 240.156 111.116C240.396 110.636 240.516 110.108 240.516 109.532C240.516 108.972 240.396 108.452 240.156 107.972C239.916 107.492 239.58 107.084 239.148 106.748C238.716 106.396 238.212 106.124 237.636 105.932C237.06 105.724 236.436 105.62 235.764 105.62H225.012L228.18 101.444H235.764C237.172 101.444 238.468 101.636 239.652 102.02C240.836 102.404 241.852 102.948 242.7 103.652C243.564 104.34 244.236 105.172 244.716 106.148C245.196 107.108 245.436 108.164 245.436 109.316Z" fill="white"/>
<path d="M41.0737 99.0174L53.8823 85.273C54.639 84.4611 55.6989 84 56.8086 84H89C91.2091 84 93 85.7909 93 88V130C93 132.209 91.2091 134 89 134H44C41.7909 134 40 132.209 40 130V101.744C40 100.732 40.3837 99.7579 41.0737 99.0174Z" fill="#1F0643" fill-opacity="0.1" stroke="#CC33D8" stroke-width="4"/>
<path d="M78.768 118.5H64.704C63.344 118.5 62.072 118.332 60.888 117.996C59.704 117.644 58.672 117.132 57.792 116.46C56.928 115.788 56.248 114.956 55.752 113.964C55.256 112.956 55.008 111.788 55.008 110.46C55.008 107.596 55.984 105.5 57.936 104.172C59.888 102.844 62.824 102.18 66.744 102.18C70.648 102.18 73.576 102.844 75.528 104.172C77.496 105.5 78.48 107.596 78.48 110.46C78.48 111.5 78.248 112.396 77.784 113.148H72.456C72.84 112.86 73.112 112.492 73.272 112.044C73.448 111.596 73.536 111.068 73.536 110.46C73.536 109.596 73.416 108.9 73.176 108.372C72.936 107.828 72.544 107.412 72 107.124C71.472 106.82 70.776 106.62 69.912 106.524C69.048 106.412 67.992 106.356 66.744 106.356C65.496 106.356 64.44 106.412 63.576 106.524C62.712 106.62 62.008 106.82 61.464 107.124C60.936 107.412 60.552 107.828 60.312 108.372C60.072 108.9 59.952 109.596 59.952 110.46C59.952 111.212 60.056 111.836 60.264 112.332C60.488 112.828 60.8 113.228 61.2 113.532C61.616 113.836 62.12 114.052 62.712 114.18C63.304 114.308 63.968 114.372 64.704 114.372H65.736C66.056 114.372 66.384 114.38 66.72 114.396C67.072 114.396 67.392 114.412 67.68 114.444C67.44 114.284 67.16 114.092 66.84 113.868C66.52 113.644 66.224 113.42 65.952 113.196L63.912 111.612H70.392L78.768 118.5Z" fill="white"/>
<path d="M125.074 99.0174L137.882 85.273C138.639 84.4611 139.699 84 140.809 84H173C175.209 84 177 85.7909 177 88V130C177 132.209 175.209 134 173 134H128C125.791 134 124 132.209 124 130V101.744C124 100.732 124.384 99.7579 125.074 99.0174Z" fill="#1F0643" fill-opacity="0.1" stroke="#CC33D8" stroke-width="4"/>
<path d="M155.392 108.852C157.36 108.852 158.856 109.22 159.88 109.956C160.904 110.676 161.416 111.772 161.416 113.244C161.416 114.06 161.288 114.796 161.032 115.452C160.776 116.108 160.368 116.66 159.808 117.108C159.248 117.556 158.528 117.9 157.648 118.14C156.784 118.38 155.744 118.5 154.528 118.5H139.576L142.768 114.372H154.912C155.504 114.372 155.936 114.284 156.208 114.108C156.48 113.916 156.616 113.612 156.616 113.196C156.616 112.78 156.48 112.484 156.208 112.308C155.936 112.132 155.504 112.044 154.912 112.044H146.176C145.136 112.044 144.24 111.932 143.488 111.708C142.736 111.484 142.112 111.172 141.616 110.772C141.12 110.372 140.752 109.892 140.512 109.332C140.272 108.756 140.152 108.124 140.152 107.436C140.152 106.684 140.28 106.004 140.536 105.396C140.808 104.772 141.216 104.244 141.76 103.812C142.32 103.38 143.032 103.044 143.896 102.804C144.776 102.564 145.824 102.444 147.04 102.444H160.984L157.792 106.62H146.656C146.08 106.62 145.648 106.7 145.36 106.86C145.088 107.02 144.952 107.308 144.952 107.724C144.952 108.14 145.088 108.436 145.36 108.612C145.648 108.772 146.08 108.852 146.656 108.852H155.392Z" fill="white"/>
<path d="M77.66 283.872L74.468 288H59.012V271.944H77.612L74.396 276.12H64.004V278.04H76.724L73.868 281.688H64.004V283.872H77.66Z" fill="white"/>
<path d="M77.704 358.468C77.704 359.364 77.528 360.18 77.176 360.916C76.824 361.636 76.304 362.252 75.616 362.764C74.944 363.276 74.12 363.676 73.144 363.964C72.168 364.252 71.056 364.396 69.808 364.396H61.408V368.5H56.464V360.292H70.288C71.056 360.292 71.648 360.124 72.064 359.788C72.496 359.452 72.712 359.004 72.712 358.444C72.712 357.884 72.496 357.444 72.064 357.124C71.648 356.788 71.056 356.62 70.288 356.62H56.464L59.752 352.444H69.832C71.08 352.444 72.192 352.596 73.168 352.9C74.144 353.188 74.968 353.596 75.64 354.124C76.312 354.652 76.824 355.284 77.176 356.02C77.528 356.756 77.704 357.572 77.704 358.468Z" fill="white"/>
<path d="M64.1 441.42C64.452 442.044 64.756 442.596 65.012 443.076C65.284 443.54 65.516 443.956 65.708 444.324C65.916 444.692 66.092 445.028 66.236 445.332C66.396 445.636 66.548 445.932 66.692 446.22C66.82 445.932 66.956 445.644 67.1 445.356C67.26 445.052 67.436 444.716 67.628 444.348C67.836 443.964 68.068 443.54 68.324 443.076C68.596 442.612 68.908 442.068 69.26 441.444L71.828 436.884C72.116 436.372 72.476 435.964 72.908 435.66C73.356 435.34 73.908 435.18 74.564 435.18C75.188 435.18 75.748 435.364 76.244 435.732C76.756 436.084 77.124 436.636 77.348 437.388L81.404 451.5H76.46L74.948 445.908C74.692 444.996 74.476 444.196 74.3 443.508C74.124 442.82 73.972 442.148 73.844 441.492C73.572 442.052 73.268 442.676 72.932 443.364C72.596 444.036 72.156 444.892 71.612 445.932L69.452 449.964C69.244 450.364 69.028 450.684 68.804 450.924C68.596 451.148 68.38 451.324 68.156 451.452C67.932 451.58 67.692 451.66 67.436 451.692C67.18 451.74 66.9 451.764 66.596 451.764C66.292 451.764 66.012 451.74 65.756 451.692C65.5 451.66 65.26 451.58 65.036 451.452C64.812 451.324 64.588 451.148 64.364 450.924C64.156 450.684 63.948 450.364 63.74 449.964L61.58 445.908C61.292 445.364 61.036 444.876 60.812 444.444C60.588 444.012 60.38 443.628 60.188 443.292C60.012 442.94 59.852 442.62 59.708 442.332C59.58 442.044 59.452 441.764 59.324 441.492C59.196 442.132 59.044 442.804 58.868 443.508C58.692 444.196 58.484 444.996 58.244 445.908L56.732 451.5H51.86L56.012 437.388C56.236 436.636 56.604 436.084 57.116 435.732C57.628 435.364 58.196 435.18 58.82 435.18C59.46 435.18 59.996 435.332 60.428 435.636C60.876 435.94 61.244 436.356 61.532 436.884L64.1 441.42Z" fill="white"/>
<path d="M2.91816 176.179L10.9682 166.45C11.7281 165.532 12.858 165 14.05 165H296C298.209 165 300 166.791 300 169V199C300 201.209 298.209 203 296 203H6C3.79086 203 2 201.209 2 199V178.729C2 177.798 2.3247 176.896 2.91816 176.179Z" fill="#1F0643" fill-opacity="0.1" stroke="#CC33D8" stroke-width="4"/>
<path d="M115.928 183.568C117.24 183.568 118.237 183.813 118.92 184.304C119.603 184.784 119.944 185.515 119.944 186.496C119.944 187.04 119.859 187.531 119.688 187.968C119.517 188.405 119.245 188.773 118.872 189.072C118.499 189.371 118.019 189.6 117.432 189.76C116.856 189.92 116.163 190 115.352 190H105.384L107.512 187.248H115.608C116.003 187.248 116.291 187.189 116.472 187.072C116.653 186.944 116.744 186.741 116.744 186.464C116.744 186.187 116.653 185.989 116.472 185.872C116.291 185.755 116.003 185.696 115.608 185.696H109.784C109.091 185.696 108.493 185.621 107.992 185.472C107.491 185.323 107.075 185.115 106.744 184.848C106.413 184.581 106.168 184.261 106.008 183.888C105.848 183.504 105.768 183.083 105.768 182.624C105.768 182.123 105.853 181.669 106.024 181.264C106.205 180.848 106.477 180.496 106.84 180.208C107.213 179.92 107.688 179.696 108.264 179.536C108.851 179.376 109.549 179.296 110.36 179.296H119.656L117.528 182.08H110.104C109.72 182.08 109.432 182.133 109.24 182.24C109.059 182.347 108.968 182.539 108.968 182.816C108.968 183.093 109.059 183.291 109.24 183.408C109.432 183.515 109.72 183.568 110.104 183.568H115.928ZM125.145 190L127.145 187.248H129.833C130.153 187.248 130.484 187.248 130.825 187.248C131.177 187.248 131.481 187.259 131.737 187.28C131.588 187.088 131.412 186.848 131.209 186.56C131.017 186.261 130.831 185.984 130.649 185.728L128.729 182.896L123.705 190H119.785L126.649 180.32C126.873 180.011 127.156 179.733 127.497 179.488C127.839 179.243 128.271 179.12 128.793 179.12C129.295 179.12 129.711 179.237 130.041 179.472C130.383 179.696 130.671 179.979 130.905 180.32L137.593 190H125.145ZM151.412 185.328C151.412 188.56 149.188 190.176 144.74 190.176C143.449 190.176 142.34 190.075 141.412 189.872C140.484 189.669 139.716 189.365 139.108 188.96C138.511 188.555 138.068 188.053 137.78 187.456C137.503 186.848 137.364 186.139 137.364 185.328V179.296H140.66V185.328C140.66 185.723 140.713 186.053 140.82 186.32C140.927 186.587 141.124 186.805 141.412 186.976C141.711 187.136 142.127 187.253 142.66 187.328C143.193 187.392 143.887 187.424 144.74 187.424C145.38 187.424 145.913 187.387 146.34 187.312C146.767 187.237 147.108 187.115 147.364 186.944C147.62 186.773 147.801 186.555 147.908 186.288C148.025 186.021 148.084 185.701 148.084 185.328V179.296H151.412V185.328ZM166.585 179.296L164.441 182.08H160.617V190H157.305V182.08H152.281L154.425 179.296H166.585ZM180.018 187.248L177.89 190H167.586V179.296H179.986L177.842 182.08H170.914V183.36H179.394L177.49 185.792H170.914V187.248H180.018ZM196.333 190H191.901L189.517 187.168H184.429V190H181.117V184.528H190.429C190.941 184.528 191.373 184.421 191.725 184.208C192.077 183.995 192.253 183.701 192.253 183.328C192.253 182.912 192.093 182.603 191.773 182.4C191.453 182.187 191.005 182.08 190.429 182.08H181.117L183.277 179.296H190.157C190.765 179.296 191.394 179.355 192.045 179.472C192.695 179.579 193.287 179.776 193.821 180.064C194.354 180.352 194.791 180.741 195.133 181.232C195.485 181.723 195.661 182.352 195.661 183.12C195.661 183.536 195.597 183.931 195.469 184.304C195.341 184.677 195.154 185.013 194.909 185.312C194.674 185.611 194.381 185.867 194.029 186.08C193.687 186.283 193.298 186.427 192.861 186.512C193.042 186.651 193.245 186.827 193.469 187.04C193.693 187.253 193.991 187.547 194.365 187.92L196.333 190Z" fill="white"/>
</svg>
