<svg width="324" height="506" viewBox="0 0 324 506" fill="none" xmlns="http://www.w3.org/2000/svg">
<path d="M147.368 290H144.056V279.296H147.368V290ZM160.278 290.176C160.065 290.176 159.851 290.139 159.638 290.064C159.435 290 159.206 289.845 158.95 289.6L152.39 283.712V290H149.382V281.12C149.382 280.768 149.43 280.464 149.526 280.208C149.633 279.952 149.766 279.744 149.926 279.584C150.097 279.424 150.289 279.307 150.502 279.232C150.726 279.157 150.955 279.12 151.19 279.12C151.393 279.12 151.595 279.157 151.798 279.232C152.011 279.296 152.251 279.451 152.518 279.696L159.078 285.584V279.296H162.102V288.16C162.102 288.512 162.049 288.816 161.942 289.072C161.846 289.328 161.713 289.541 161.542 289.712C161.382 289.872 161.19 289.989 160.966 290.064C160.742 290.139 160.513 290.176 160.278 290.176ZM177.351 279.296L175.207 282.08H171.383V290H168.071V282.08H163.047L165.191 279.296H177.351ZM190.784 287.248L188.656 290H178.352V279.296H190.752L188.608 282.08H181.68V283.36H190.16L188.256 285.792H181.68V287.248H190.784ZM207.098 290H202.666L200.282 287.168H195.194V290H191.882V284.528H201.194C201.706 284.528 202.138 284.421 202.49 284.208C202.842 283.995 203.018 283.701 203.018 283.328C203.018 282.912 202.858 282.603 202.538 282.4C202.218 282.187 201.77 282.08 201.194 282.08H191.882L194.042 279.296H200.922C201.53 279.296 202.16 279.355 202.81 279.472C203.461 279.579 204.053 279.776 204.586 280.064C205.12 280.352 205.557 280.741 205.898 281.232C206.25 281.723 206.426 282.352 206.426 283.12C206.426 283.536 206.362 283.931 206.234 284.304C206.106 284.677 205.92 285.013 205.674 285.312C205.44 285.611 205.146 285.867 204.794 286.08C204.453 286.283 204.064 286.427 203.626 286.512C203.808 286.651 204.01 286.827 204.234 287.04C204.458 287.253 204.757 287.547 205.13 287.92L207.098 290ZM212.817 290L214.817 287.248H217.505C217.825 287.248 218.156 287.248 218.497 287.248C218.849 287.248 219.153 287.259 219.409 287.28C219.26 287.088 219.084 286.848 218.881 286.56C218.689 286.261 218.503 285.984 218.321 285.728L216.401 282.896L211.377 290H207.457L214.321 280.32C214.545 280.011 214.828 279.733 215.169 279.488C215.511 279.243 215.943 279.12 216.465 279.12C216.967 279.12 217.383 279.237 217.713 279.472C218.055 279.696 218.343 279.979 218.577 280.32L225.265 290H212.817ZM231.413 283.312H238.261V290H230.917C229.989 290 229.13 289.861 228.341 289.584C227.552 289.307 226.869 288.928 226.293 288.448C225.728 287.957 225.28 287.381 224.949 286.72C224.629 286.048 224.469 285.323 224.469 284.544C224.469 283.765 224.629 283.056 224.949 282.416C225.28 281.765 225.728 281.211 226.293 280.752C226.869 280.283 227.552 279.925 228.341 279.68C229.13 279.424 229.989 279.296 230.917 279.296H238.581L236.437 282.08H230.917C230.469 282.08 230.053 282.144 229.669 282.272C229.285 282.4 228.949 282.581 228.661 282.816C228.384 283.051 228.165 283.328 228.005 283.648C227.845 283.957 227.765 284.304 227.765 284.688C227.765 285.072 227.84 285.424 227.989 285.744C228.149 286.053 228.368 286.32 228.645 286.544C228.933 286.768 229.269 286.944 229.653 287.072C230.037 287.189 230.458 287.248 230.917 287.248H234.965V285.696H229.429L231.413 283.312ZM243.524 290H240.212V279.296H243.524V290ZM260.77 290H256.338L253.954 287.168H248.866V290H245.554V284.528H254.866C255.378 284.528 255.81 284.421 256.162 284.208C256.514 283.995 256.69 283.701 256.69 283.328C256.69 282.912 256.53 282.603 256.21 282.4C255.89 282.187 255.442 282.08 254.866 282.08H245.554L247.714 279.296H254.594C255.202 279.296 255.831 279.355 256.482 279.472C257.133 279.579 257.725 279.776 258.258 280.064C258.791 280.352 259.229 280.741 259.57 281.232C259.922 281.723 260.098 282.352 260.098 283.12C260.098 283.536 260.034 283.931 259.906 284.304C259.778 284.677 259.591 285.013 259.346 285.312C259.111 285.611 258.818 285.867 258.466 286.08C258.125 286.283 257.735 286.427 257.298 286.512C257.479 286.651 257.682 286.827 257.906 287.04C258.13 287.253 258.429 287.547 258.802 287.92L260.77 290Z" fill="white"/>
<path d="M158.136 373.312C158.136 373.909 158.019 374.453 157.784 374.944C157.549 375.424 157.203 375.835 156.744 376.176C156.296 376.517 155.747 376.784 155.096 376.976C154.445 377.168 153.704 377.264 152.872 377.264H147.272V380H143.976V374.528H153.192C153.704 374.528 154.099 374.416 154.376 374.192C154.664 373.968 154.808 373.669 154.808 373.296C154.808 372.923 154.664 372.629 154.376 372.416C154.099 372.192 153.704 372.08 153.192 372.08H143.976L146.168 369.296H152.888C153.72 369.296 154.461 369.397 155.112 369.6C155.763 369.792 156.312 370.064 156.76 370.416C157.208 370.768 157.549 371.189 157.784 371.68C158.019 372.171 158.136 372.715 158.136 373.312ZM161.817 380L163.817 377.248H166.505C166.825 377.248 167.156 377.248 167.497 377.248C167.849 377.248 168.153 377.259 168.409 377.28C168.26 377.088 168.084 376.848 167.881 376.56C167.689 376.261 167.503 375.984 167.321 375.728L165.401 372.896L160.377 380H156.457L163.321 370.32C163.545 370.011 163.828 369.733 164.169 369.488C164.511 369.243 164.943 369.12 165.465 369.12C165.967 369.12 166.383 369.237 166.713 369.472C167.055 369.696 167.343 369.979 167.577 370.32L174.265 380H161.817ZM188.084 375.328C188.084 378.56 185.86 380.176 181.412 380.176C180.121 380.176 179.012 380.075 178.084 379.872C177.156 379.669 176.388 379.365 175.78 378.96C175.183 378.555 174.74 378.053 174.452 377.456C174.175 376.848 174.036 376.139 174.036 375.328V369.296H177.332V375.328C177.332 375.723 177.385 376.053 177.492 376.32C177.599 376.587 177.796 376.805 178.084 376.976C178.383 377.136 178.799 377.253 179.332 377.328C179.865 377.392 180.559 377.424 181.412 377.424C182.052 377.424 182.585 377.387 183.012 377.312C183.439 377.237 183.78 377.115 184.036 376.944C184.292 376.773 184.473 376.555 184.58 376.288C184.697 376.021 184.756 375.701 184.756 375.328V369.296H188.084V375.328ZM199.881 373.568C201.193 373.568 202.19 373.813 202.873 374.304C203.556 374.784 203.897 375.515 203.897 376.496C203.897 377.04 203.812 377.531 203.641 377.968C203.47 378.405 203.198 378.773 202.825 379.072C202.452 379.371 201.972 379.6 201.385 379.76C200.809 379.92 200.116 380 199.305 380H189.337L191.465 377.248H199.561C199.956 377.248 200.244 377.189 200.425 377.072C200.606 376.944 200.697 376.741 200.697 376.464C200.697 376.187 200.606 375.989 200.425 375.872C200.244 375.755 199.956 375.696 199.561 375.696H193.737C193.044 375.696 192.446 375.621 191.945 375.472C191.444 375.323 191.028 375.115 190.697 374.848C190.366 374.581 190.121 374.261 189.961 373.888C189.801 373.504 189.721 373.083 189.721 372.624C189.721 372.123 189.806 371.669 189.977 371.264C190.158 370.848 190.43 370.496 190.793 370.208C191.166 369.92 191.641 369.696 192.217 369.536C192.804 369.376 193.502 369.296 194.313 369.296H203.609L201.481 372.08H194.057C193.673 372.08 193.385 372.133 193.193 372.24C193.012 372.347 192.921 372.539 192.921 372.816C192.921 373.093 193.012 373.291 193.193 373.408C193.385 373.515 193.673 373.568 194.057 373.568H199.881ZM217.799 377.248L215.671 380H205.367V369.296H217.767L215.623 372.08H208.695V373.36H217.175L215.271 375.792H208.695V377.248H217.799Z" fill="white"/>
<path d="M153.928 463.568C155.24 463.568 156.237 463.813 156.92 464.304C157.603 464.784 157.944 465.515 157.944 466.496C157.944 467.04 157.859 467.531 157.688 467.968C157.517 468.405 157.245 468.773 156.872 469.072C156.499 469.371 156.019 469.6 155.432 469.76C154.856 469.92 154.163 470 153.352 470H143.384L145.512 467.248H153.608C154.003 467.248 154.291 467.189 154.472 467.072C154.653 466.944 154.744 466.741 154.744 466.464C154.744 466.187 154.653 465.989 154.472 465.872C154.291 465.755 154.003 465.696 153.608 465.696H147.784C147.091 465.696 146.493 465.621 145.992 465.472C145.491 465.323 145.075 465.115 144.744 464.848C144.413 464.581 144.168 464.261 144.008 463.888C143.848 463.504 143.768 463.083 143.768 462.624C143.768 462.123 143.853 461.669 144.024 461.264C144.205 460.848 144.477 460.496 144.84 460.208C145.213 459.92 145.688 459.696 146.264 459.536C146.851 459.376 147.549 459.296 148.36 459.296H157.656L155.528 462.08H148.104C147.72 462.08 147.432 462.133 147.24 462.24C147.059 462.347 146.968 462.539 146.968 462.816C146.968 463.093 147.059 463.291 147.24 463.408C147.432 463.515 147.72 463.568 148.104 463.568H153.928ZM166.902 459.12C169.505 459.12 171.457 459.563 172.758 460.448C174.07 461.333 174.726 462.731 174.726 464.64C174.726 466.56 174.076 467.963 172.774 468.848C171.473 469.733 169.516 470.176 166.902 470.176C164.278 470.176 162.316 469.733 161.014 468.848C159.724 467.963 159.078 466.56 159.078 464.64C159.078 462.731 159.729 461.333 161.03 460.448C162.332 459.563 164.289 459.12 166.902 459.12ZM166.902 467.392C167.734 467.392 168.438 467.36 169.014 467.296C169.59 467.221 170.054 467.083 170.406 466.88C170.769 466.677 171.03 466.4 171.19 466.048C171.35 465.685 171.43 465.216 171.43 464.64C171.43 464.064 171.35 463.6 171.19 463.248C171.03 462.885 170.769 462.608 170.406 462.416C170.054 462.213 169.59 462.08 169.014 462.016C168.438 461.941 167.734 461.904 166.902 461.904C166.07 461.904 165.366 461.941 164.79 462.016C164.214 462.08 163.745 462.213 163.382 462.416C163.03 462.608 162.774 462.885 162.614 463.248C162.454 463.6 162.374 464.064 162.374 464.64C162.374 465.216 162.454 465.685 162.614 466.048C162.774 466.4 163.03 466.677 163.382 466.88C163.745 467.083 164.214 467.221 164.79 467.296C165.366 467.36 166.07 467.392 166.902 467.392ZM187.247 470.176C187.033 470.176 186.82 470.139 186.607 470.064C186.404 470 186.175 469.845 185.919 469.6L179.359 463.712V470H176.351V461.12C176.351 460.768 176.399 460.464 176.495 460.208C176.601 459.952 176.735 459.744 176.895 459.584C177.065 459.424 177.257 459.307 177.471 459.232C177.695 459.157 177.924 459.12 178.159 459.12C178.361 459.12 178.564 459.157 178.767 459.232C178.98 459.296 179.22 459.451 179.487 459.696L186.047 465.584V459.296H189.071V468.16C189.071 468.512 189.017 468.816 188.911 469.072C188.815 469.328 188.681 469.541 188.511 469.712C188.351 469.872 188.159 469.989 187.935 470.064C187.711 470.139 187.481 470.176 187.247 470.176ZM204.637 459.12C207.239 459.12 209.191 459.563 210.493 460.448C211.805 461.333 212.461 462.731 212.461 464.64C212.461 466.56 211.81 467.963 210.509 468.848C209.207 469.733 207.25 470.176 204.637 470.176C202.013 470.176 200.05 469.733 198.749 468.848C197.458 467.963 196.813 466.56 196.813 464.64C196.813 462.731 197.463 461.333 198.765 460.448C200.066 459.563 202.023 459.12 204.637 459.12ZM204.637 467.392C205.469 467.392 206.173 467.36 206.749 467.296C207.325 467.221 207.789 467.083 208.141 466.88C208.503 466.677 208.765 466.4 208.925 466.048C209.085 465.685 209.165 465.216 209.165 464.64C209.165 464.064 209.085 463.6 208.925 463.248C208.765 462.885 208.503 462.608 208.141 462.416C207.789 462.213 207.325 462.08 206.749 462.016C206.173 461.941 205.469 461.904 204.637 461.904C203.805 461.904 203.101 461.941 202.525 462.016C201.949 462.08 201.479 462.213 201.117 462.416C200.765 462.608 200.509 462.885 200.349 463.248C200.189 463.6 200.109 464.064 200.109 464.64C200.109 465.216 200.189 465.685 200.349 466.048C200.509 466.4 200.765 466.677 201.117 466.88C201.479 467.083 201.949 467.221 202.525 467.296C203.101 467.36 203.805 467.392 204.637 467.392ZM226.133 459.296L223.989 462.08H217.461V463.472H225.525L223.509 466.08H217.461V470H214.133V459.296H226.133ZM239.258 459.296L237.114 462.08H230.586V463.472H238.65L236.634 466.08H230.586V470H227.258V459.296H239.258ZM245.115 458.704L239.627 470.608H237.562L243.163 458.704H245.115ZM252.777 459.12C255.38 459.12 257.332 459.563 258.633 460.448C259.945 461.333 260.601 462.731 260.601 464.64C260.601 466.56 259.951 467.963 258.649 468.848C257.348 469.733 255.391 470.176 252.777 470.176C250.153 470.176 248.191 469.733 246.889 468.848C245.599 467.963 244.953 466.56 244.953 464.64C244.953 462.731 245.604 461.333 246.905 460.448C248.207 459.563 250.164 459.12 252.777 459.12ZM252.777 467.392C253.609 467.392 254.313 467.36 254.889 467.296C255.465 467.221 255.929 467.083 256.281 466.88C256.644 466.677 256.905 466.4 257.065 466.048C257.225 465.685 257.305 465.216 257.305 464.64C257.305 464.064 257.225 463.6 257.065 463.248C256.905 462.885 256.644 462.608 256.281 462.416C255.929 462.213 255.465 462.08 254.889 462.016C254.313 461.941 253.609 461.904 252.777 461.904C251.945 461.904 251.241 461.941 250.665 462.016C250.089 462.08 249.62 462.213 249.257 462.416C248.905 462.608 248.649 462.885 248.489 463.248C248.329 463.6 248.249 464.064 248.249 464.64C248.249 465.216 248.329 465.685 248.489 466.048C248.649 466.4 248.905 466.677 249.257 466.88C249.62 467.083 250.089 467.221 250.665 467.296C251.241 467.36 251.945 467.392 252.777 467.392ZM273.122 470.176C272.908 470.176 272.695 470.139 272.482 470.064C272.279 470 272.05 469.845 271.794 469.6L265.234 463.712V470H262.226V461.12C262.226 460.768 262.274 460.464 262.37 460.208C262.476 459.952 262.61 459.744 262.77 459.584C262.94 459.424 263.132 459.307 263.346 459.232C263.57 459.157 263.799 459.12 264.034 459.12C264.236 459.12 264.439 459.157 264.642 459.232C264.855 459.296 265.095 459.451 265.362 459.696L271.922 465.584V459.296H274.946V468.16C274.946 468.512 274.892 468.816 274.786 469.072C274.69 469.328 274.556 469.541 274.386 469.712C274.226 469.872 274.034 469.989 273.81 470.064C273.586 470.139 273.356 470.176 273.122 470.176Z" fill="white"/>
<g filter="url(#filter0_d)">
<path d="M136.074 24.0174L148.882 10.273C149.639 9.46106 150.699 9 151.809 9H184C186.209 9 188 10.7909 188 13V55C188 57.2091 186.209 59 184 59H139C136.791 59 135 57.2091 135 55V26.7445C135 25.7324 135.384 24.7579 136.074 24.0174Z" fill="#CC33D8"/>
<path d="M136.074 24.0174L148.882 10.273C149.639 9.46106 150.699 9 151.809 9H184C186.209 9 188 10.7909 188 13V55C188 57.2091 186.209 59 184 59H139C136.791 59 135 57.2091 135 55V26.7445C135 25.7324 135.384 24.7579 136.074 24.0174Z" stroke="#CC33D8" stroke-width="4"/>
</g>
<g filter="url(#filter1_d)">
<path d="M52.0737 454.017L64.8823 440.273C65.639 439.461 66.6989 439 67.8086 439H100C102.209 439 104 440.791 104 443V485C104 487.209 102.209 489 100 489H55C52.7909 489 51 487.209 51 485V456.744C51 455.732 51.3837 454.758 52.0737 454.017Z" fill="#CC33D8"/>
<path d="M52.0737 454.017L64.8823 440.273C65.639 439.461 66.6989 439 67.8086 439H100C102.209 439 104 440.791 104 443V485C104 487.209 102.209 489 100 489H55C52.7909 489 51 487.209 51 485V456.744C51 455.732 51.3837 454.758 52.0737 454.017Z" stroke="#CC33D8" stroke-width="4"/>
</g>
<g filter="url(#filter2_d)">
<path d="M52.0737 364.017L64.8823 350.273C65.639 349.461 66.6989 349 67.8086 349H100C102.209 349 104 350.791 104 353V395C104 397.209 102.209 399 100 399H55C52.7909 399 51 397.209 51 395V366.744C51 365.732 51.3837 364.758 52.0737 364.017Z" fill="#CC33D8"/>
<path d="M52.0737 364.017L64.8823 350.273C65.639 349.461 66.6989 349 67.8086 349H100C102.209 349 104 350.791 104 353V395C104 397.209 102.209 399 100 399H55C52.7909 399 51 397.209 51 395V366.744C51 365.732 51.3837 364.758 52.0737 364.017Z" stroke="#CC33D8" stroke-width="4"/>
</g>
<g filter="url(#filter3_d)">
<path d="M53.0737 274.017L65.8823 260.273C66.639 259.461 67.6989 259 68.8086 259H101C103.209 259 105 260.791 105 263V305C105 307.209 103.209 309 101 309H56C53.7909 309 52 307.209 52 305V276.744C52 275.732 52.3837 274.758 53.0737 274.017Z" fill="#CC33D8"/>
<path d="M53.0737 274.017L65.8823 260.273C66.639 259.461 67.6989 259 68.8086 259H101C103.209 259 105 260.791 105 263V305C105 307.209 103.209 309 101 309H56C53.7909 309 52 307.209 52 305V276.744C52 275.732 52.3837 274.758 53.0737 274.017Z" stroke="#CC33D8" stroke-width="4"/>
</g>
<path d="M169.384 42.5H154.168C153.544 42.5 153 42.332 152.536 41.996C152.088 41.644 151.864 41.14 151.864 40.484C151.864 40.116 151.96 39.764 152.152 39.428C152.344 39.076 152.608 38.764 152.944 38.492L158.8 33.884C159.472 33.356 160.048 32.908 160.528 32.54C161.008 32.156 161.424 31.836 161.776 31.58C162.128 31.308 162.416 31.092 162.64 30.932C162.88 30.772 163.072 30.636 163.216 30.524C162.992 30.54 162.728 30.556 162.424 30.572C162.136 30.588 161.768 30.604 161.32 30.62C160.888 30.62 160.376 30.62 159.784 30.62C159.192 30.62 158.496 30.62 157.696 30.62H151.264L154.432 26.444H169.24C169.864 26.444 170.4 26.62 170.848 26.972C171.312 27.308 171.544 27.804 171.544 28.46C171.544 28.828 171.448 29.188 171.256 29.54C171.064 29.876 170.8 30.172 170.464 30.428L164.536 35.132C163.88 35.66 163.312 36.108 162.832 36.476C162.352 36.844 161.936 37.164 161.584 37.436C161.248 37.692 160.968 37.9 160.744 38.06C160.52 38.22 160.328 38.356 160.168 38.468C160.36 38.452 160.68 38.444 161.128 38.444C161.592 38.428 162.12 38.42 162.712 38.42C163.304 38.404 163.936 38.396 164.608 38.396C165.28 38.38 165.928 38.372 166.552 38.372H172.384L169.384 42.5Z" fill="white"/>
<g filter="url(#filter4_d)">
<path d="M221.074 106.017L233.882 92.273C234.639 91.4611 235.699 91 236.809 91H269C271.209 91 273 92.7909 273 95V137C273 139.209 271.209 141 269 141H224C221.791 141 220 139.209 220 137V108.744C220 107.732 220.384 106.758 221.074 106.017Z" fill="#CC33D8" stroke="#CC33D8" stroke-width="4"/>
<path d="M257.436 116.316C257.436 117.484 257.188 118.572 256.692 119.58C256.212 120.572 255.54 121.436 254.676 122.172C253.828 122.892 252.812 123.46 251.628 123.876C250.444 124.292 249.156 124.5 247.764 124.5H237.012V114.492H242.004V120.372H247.764C248.452 120.372 249.084 120.284 249.66 120.108C250.252 119.916 250.756 119.652 251.172 119.316C251.588 118.98 251.916 118.58 252.156 118.116C252.396 117.636 252.516 117.108 252.516 116.532C252.516 115.972 252.396 115.452 252.156 114.972C251.916 114.492 251.58 114.084 251.148 113.748C250.716 113.396 250.212 113.124 249.636 112.932C249.06 112.724 248.436 112.62 247.764 112.62H237.012L240.18 108.444H247.764C249.172 108.444 250.468 108.636 251.652 109.02C252.836 109.404 253.852 109.948 254.7 110.652C255.564 111.34 256.236 112.172 256.716 113.148C257.196 114.108 257.436 115.164 257.436 116.316Z" fill="white"/>
</g>
<g filter="url(#filter5_d)">
<path d="M51.0737 106.017L63.8823 92.273C64.639 91.4611 65.6989 91 66.8086 91H99C101.209 91 103 92.7909 103 95V137C103 139.209 101.209 141 99 141H54C51.7909 141 50 139.209 50 137V108.744C50 107.732 50.3837 106.758 51.0737 106.017Z" fill="#CC33D8" stroke="#CC33D8" stroke-width="4"/>
<path d="M88.768 125.5H74.704C73.344 125.5 72.072 125.332 70.888 124.996C69.704 124.644 68.672 124.132 67.792 123.46C66.928 122.788 66.248 121.956 65.752 120.964C65.256 119.956 65.008 118.788 65.008 117.46C65.008 114.596 65.984 112.5 67.936 111.172C69.888 109.844 72.824 109.18 76.744 109.18C80.648 109.18 83.576 109.844 85.528 111.172C87.496 112.5 88.48 114.596 88.48 117.46C88.48 118.5 88.248 119.396 87.784 120.148H82.456C82.84 119.86 83.112 119.492 83.272 119.044C83.448 118.596 83.536 118.068 83.536 117.46C83.536 116.596 83.416 115.9 83.176 115.372C82.936 114.828 82.544 114.412 82 114.124C81.472 113.82 80.776 113.62 79.912 113.524C79.048 113.412 77.992 113.356 76.744 113.356C75.496 113.356 74.44 113.412 73.576 113.524C72.712 113.62 72.008 113.82 71.464 114.124C70.936 114.412 70.552 114.828 70.312 115.372C70.072 115.9 69.952 116.596 69.952 117.46C69.952 118.212 70.056 118.836 70.264 119.332C70.488 119.828 70.8 120.228 71.2 120.532C71.616 120.836 72.12 121.052 72.712 121.18C73.304 121.308 73.968 121.372 74.704 121.372H75.736C76.056 121.372 76.384 121.38 76.72 121.396C77.072 121.396 77.392 121.412 77.68 121.444C77.44 121.284 77.16 121.092 76.84 120.868C76.52 120.644 76.224 120.42 75.952 120.196L73.912 118.612H80.392L88.768 125.5Z" fill="white"/>
</g>
<g filter="url(#filter6_d)">
<path d="M136.074 106.017L148.882 92.273C149.639 91.4611 150.699 91 151.809 91H184C186.209 91 188 92.7909 188 95V137C188 139.209 186.209 141 184 141H139C136.791 141 135 139.209 135 137V108.744C135 107.732 135.384 106.758 136.074 106.017Z" fill="#CC33D8" stroke="#CC33D8" stroke-width="4"/>
<path d="M166.392 115.852C168.36 115.852 169.856 116.22 170.88 116.956C171.904 117.676 172.416 118.772 172.416 120.244C172.416 121.06 172.288 121.796 172.032 122.452C171.776 123.108 171.368 123.66 170.808 124.108C170.248 124.556 169.528 124.9 168.648 125.14C167.784 125.38 166.744 125.5 165.528 125.5H150.576L153.768 121.372H165.912C166.504 121.372 166.936 121.284 167.208 121.108C167.48 120.916 167.616 120.612 167.616 120.196C167.616 119.78 167.48 119.484 167.208 119.308C166.936 119.132 166.504 119.044 165.912 119.044H157.176C156.136 119.044 155.24 118.932 154.488 118.708C153.736 118.484 153.112 118.172 152.616 117.772C152.12 117.372 151.752 116.892 151.512 116.332C151.272 115.756 151.152 115.124 151.152 114.436C151.152 113.684 151.28 113.004 151.536 112.396C151.808 111.772 152.216 111.244 152.76 110.812C153.32 110.38 154.032 110.044 154.896 109.804C155.776 109.564 156.824 109.444 158.04 109.444H171.984L168.792 113.62H157.656C157.08 113.62 156.648 113.7 156.36 113.86C156.088 114.02 155.952 114.308 155.952 114.724C155.952 115.14 156.088 115.436 156.36 115.612C156.648 115.772 157.08 115.852 157.656 115.852H166.392Z" fill="white"/>
</g>
<path d="M88.66 288.872L85.468 293H70.012V276.944H88.612L85.396 281.12H75.004V283.04H87.724L84.868 286.688H75.004V288.872H88.66Z" fill="white"/>
<path d="M88.704 372.468C88.704 373.364 88.528 374.18 88.176 374.916C87.824 375.636 87.304 376.252 86.616 376.764C85.944 377.276 85.12 377.676 84.144 377.964C83.168 378.252 82.056 378.396 80.808 378.396H72.408V382.5H67.464V374.292H81.288C82.056 374.292 82.648 374.124 83.064 373.788C83.496 373.452 83.712 373.004 83.712 372.444C83.712 371.884 83.496 371.444 83.064 371.124C82.648 370.788 82.056 370.62 81.288 370.62H67.464L70.752 366.444H80.832C82.08 366.444 83.192 366.596 84.168 366.9C85.144 367.188 85.968 367.596 86.64 368.124C87.312 368.652 87.824 369.284 88.176 370.02C88.528 370.756 88.704 371.572 88.704 372.468Z" fill="white"/>
<path d="M75.1 463.42C75.452 464.044 75.756 464.596 76.012 465.076C76.284 465.54 76.516 465.956 76.708 466.324C76.916 466.692 77.092 467.028 77.236 467.332C77.396 467.636 77.548 467.932 77.692 468.22C77.82 467.932 77.956 467.644 78.1 467.356C78.26 467.052 78.436 466.716 78.628 466.348C78.836 465.964 79.068 465.54 79.324 465.076C79.596 464.612 79.908 464.068 80.26 463.444L82.828 458.884C83.116 458.372 83.476 457.964 83.908 457.66C84.356 457.34 84.908 457.18 85.564 457.18C86.188 457.18 86.748 457.364 87.244 457.732C87.756 458.084 88.124 458.636 88.348 459.388L92.404 473.5H87.46L85.948 467.908C85.692 466.996 85.476 466.196 85.3 465.508C85.124 464.82 84.972 464.148 84.844 463.492C84.572 464.052 84.268 464.676 83.932 465.364C83.596 466.036 83.156 466.892 82.612 467.932L80.452 471.964C80.244 472.364 80.028 472.684 79.804 472.924C79.596 473.148 79.38 473.324 79.156 473.452C78.932 473.58 78.692 473.66 78.436 473.692C78.18 473.74 77.9 473.764 77.596 473.764C77.292 473.764 77.012 473.74 76.756 473.692C76.5 473.66 76.26 473.58 76.036 473.452C75.812 473.324 75.588 473.148 75.364 472.924C75.156 472.684 74.948 472.364 74.74 471.964L72.58 467.908C72.292 467.364 72.036 466.876 71.812 466.444C71.588 466.012 71.38 465.628 71.188 465.292C71.012 464.94 70.852 464.62 70.708 464.332C70.58 464.044 70.452 463.764 70.324 463.492C70.196 464.132 70.044 464.804 69.868 465.508C69.692 466.196 69.484 466.996 69.244 467.908L67.732 473.5H62.86L67.012 459.388C67.236 458.636 67.604 458.084 68.116 457.732C68.628 457.364 69.196 457.18 69.82 457.18C70.46 457.18 70.996 457.332 71.428 457.636C71.876 457.94 72.244 458.356 72.532 458.884L75.1 463.42Z" fill="white"/>
<g filter="url(#filter7_d)">
<path d="M13.9182 184.179L21.9682 174.45C22.7281 173.532 23.858 173 25.05 173H307C309.209 173 311 174.791 311 177V207C311 209.209 309.209 211 307 211H17C14.7909 211 13 209.209 13 207V186.729C13 185.798 13.3247 184.896 13.9182 184.179Z" fill="#CC33D8" stroke="#CC33D8" stroke-width="4"/>
<path d="M126.928 191.568C128.24 191.568 129.237 191.813 129.92 192.304C130.603 192.784 130.944 193.515 130.944 194.496C130.944 195.04 130.859 195.531 130.688 195.968C130.517 196.405 130.245 196.773 129.872 197.072C129.499 197.371 129.019 197.6 128.432 197.76C127.856 197.92 127.163 198 126.352 198H116.384L118.512 195.248H126.608C127.003 195.248 127.291 195.189 127.472 195.072C127.653 194.944 127.744 194.741 127.744 194.464C127.744 194.187 127.653 193.989 127.472 193.872C127.291 193.755 127.003 193.696 126.608 193.696H120.784C120.091 193.696 119.493 193.621 118.992 193.472C118.491 193.323 118.075 193.115 117.744 192.848C117.413 192.581 117.168 192.261 117.008 191.888C116.848 191.504 116.768 191.083 116.768 190.624C116.768 190.123 116.853 189.669 117.024 189.264C117.205 188.848 117.477 188.496 117.84 188.208C118.213 187.92 118.688 187.696 119.264 187.536C119.851 187.376 120.549 187.296 121.36 187.296H130.656L128.528 190.08H121.104C120.72 190.08 120.432 190.133 120.24 190.24C120.059 190.347 119.968 190.539 119.968 190.816C119.968 191.093 120.059 191.291 120.24 191.408C120.432 191.515 120.72 191.568 121.104 191.568H126.928ZM136.145 198L138.145 195.248H140.833C141.153 195.248 141.484 195.248 141.825 195.248C142.177 195.248 142.481 195.259 142.737 195.28C142.588 195.088 142.412 194.848 142.209 194.56C142.017 194.261 141.831 193.984 141.649 193.728L139.729 190.896L134.705 198H130.785L137.649 188.32C137.873 188.011 138.156 187.733 138.497 187.488C138.839 187.243 139.271 187.12 139.793 187.12C140.295 187.12 140.711 187.237 141.041 187.472C141.383 187.696 141.671 187.979 141.905 188.32L148.593 198H136.145ZM162.412 193.328C162.412 196.56 160.188 198.176 155.74 198.176C154.449 198.176 153.34 198.075 152.412 197.872C151.484 197.669 150.716 197.365 150.108 196.96C149.511 196.555 149.068 196.053 148.78 195.456C148.503 194.848 148.364 194.139 148.364 193.328V187.296H151.66V193.328C151.66 193.723 151.713 194.053 151.82 194.32C151.927 194.587 152.124 194.805 152.412 194.976C152.711 195.136 153.127 195.253 153.66 195.328C154.193 195.392 154.887 195.424 155.74 195.424C156.38 195.424 156.913 195.387 157.34 195.312C157.767 195.237 158.108 195.115 158.364 194.944C158.62 194.773 158.801 194.555 158.908 194.288C159.025 194.021 159.084 193.701 159.084 193.328V187.296H162.412V193.328ZM177.585 187.296L175.441 190.08H171.617V198H168.305V190.08H163.281L165.425 187.296H177.585ZM191.018 195.248L188.89 198H178.586V187.296H190.986L188.842 190.08H181.914V191.36H190.394L188.49 193.792H181.914V195.248H191.018ZM207.333 198H202.901L200.517 195.168H195.429V198H192.117V192.528H201.429C201.941 192.528 202.373 192.421 202.725 192.208C203.077 191.995 203.253 191.701 203.253 191.328C203.253 190.912 203.093 190.603 202.773 190.4C202.453 190.187 202.005 190.08 201.429 190.08H192.117L194.277 187.296H201.157C201.765 187.296 202.394 187.355 203.045 187.472C203.695 187.579 204.287 187.776 204.821 188.064C205.354 188.352 205.791 188.741 206.133 189.232C206.485 189.723 206.661 190.352 206.661 191.12C206.661 191.536 206.597 191.931 206.469 192.304C206.341 192.677 206.154 193.013 205.909 193.312C205.674 193.611 205.381 193.867 205.029 194.08C204.687 194.283 204.298 194.427 203.861 194.512C204.042 194.651 204.245 194.827 204.469 195.04C204.693 195.253 204.991 195.547 205.365 195.92L207.333 198Z" fill="white"/>
</g>
<defs>
<filter id="filter0_d" x="122" y="0" width="79" height="76" filterUnits="userSpaceOnUse" color-interpolation-filters="sRGB">
<feFlood flood-opacity="0" result="BackgroundImageFix"/>
<feColorMatrix in="SourceAlpha" type="matrix" values="0 0 0 0 0 0 0 0 0 0 0 0 0 0 0 0 0 0 127 0"/>
<feOffset dy="4"/>
<feGaussianBlur stdDeviation="5.5"/>
<feColorMatrix type="matrix" values="0 0 0 0 0.762496 0 0 0 0 0.231198 0 0 0 0 0.804167 0 0 0 0.44 0"/>
<feBlend mode="normal" in2="BackgroundImageFix" result="effect1_dropShadow"/>
<feBlend mode="normal" in="SourceGraphic" in2="effect1_dropShadow" result="shape"/>
</filter>
<filter id="filter1_d" x="38" y="430" width="79" height="76" filterUnits="userSpaceOnUse" color-interpolation-filters="sRGB">
<feFlood flood-opacity="0" result="BackgroundImageFix"/>
<feColorMatrix in="SourceAlpha" type="matrix" values="0 0 0 0 0 0 0 0 0 0 0 0 0 0 0 0 0 0 127 0"/>
<feOffset dy="4"/>
<feGaussianBlur stdDeviation="5.5"/>
<feColorMatrix type="matrix" values="0 0 0 0 0.762496 0 0 0 0 0.231198 0 0 0 0 0.804167 0 0 0 0.44 0"/>
<feBlend mode="normal" in2="BackgroundImageFix" result="effect1_dropShadow"/>
<feBlend mode="normal" in="SourceGraphic" in2="effect1_dropShadow" result="shape"/>
</filter>
<filter id="filter2_d" x="38" y="340" width="79" height="76" filterUnits="userSpaceOnUse" color-interpolation-filters="sRGB">
<feFlood flood-opacity="0" result="BackgroundImageFix"/>
<feColorMatrix in="SourceAlpha" type="matrix" values="0 0 0 0 0 0 0 0 0 0 0 0 0 0 0 0 0 0 127 0"/>
<feOffset dy="4"/>
<feGaussianBlur stdDeviation="5.5"/>
<feColorMatrix type="matrix" values="0 0 0 0 0.762496 0 0 0 0 0.231198 0 0 0 0 0.804167 0 0 0 0.44 0"/>
<feBlend mode="normal" in2="BackgroundImageFix" result="effect1_dropShadow"/>
<feBlend mode="normal" in="SourceGraphic" in2="effect1_dropShadow" result="shape"/>
</filter>
<filter id="filter3_d" x="39" y="250" width="79" height="76" filterUnits="userSpaceOnUse" color-interpolation-filters="sRGB">
<feFlood flood-opacity="0" result="BackgroundImageFix"/>
<feColorMatrix in="SourceAlpha" type="matrix" values="0 0 0 0 0 0 0 0 0 0 0 0 0 0 0 0 0 0 127 0"/>
<feOffset dy="4"/>
<feGaussianBlur stdDeviation="5.5"/>
<feColorMatrix type="matrix" values="0 0 0 0 0.762496 0 0 0 0 0.231198 0 0 0 0 0.804167 0 0 0 0.44 0"/>
<feBlend mode="normal" in2="BackgroundImageFix" result="effect1_dropShadow"/>
<feBlend mode="normal" in="SourceGraphic" in2="effect1_dropShadow" result="shape"/>
</filter>
<filter id="filter4_d" x="207" y="82" width="79" height="76" filterUnits="userSpaceOnUse" color-interpolation-filters="sRGB">
<feFlood flood-opacity="0" result="BackgroundImageFix"/>
<feColorMatrix in="SourceAlpha" type="matrix" values="0 0 0 0 0 0 0 0 0 0 0 0 0 0 0 0 0 0 127 0"/>
<feOffset dy="4"/>
<feGaussianBlur stdDeviation="5.5"/>
<feColorMatrix type="matrix" values="0 0 0 0 0.762496 0 0 0 0 0.231198 0 0 0 0 0.804167 0 0 0 0.44 0"/>
<feBlend mode="normal" in2="BackgroundImageFix" result="effect1_dropShadow"/>
<feBlend mode="normal" in="SourceGraphic" in2="effect1_dropShadow" result="shape"/>
</filter>
<filter id="filter5_d" x="37" y="82" width="79" height="76" filterUnits="userSpaceOnUse" color-interpolation-filters="sRGB">
<feFlood flood-opacity="0" result="BackgroundImageFix"/>
<feColorMatrix in="SourceAlpha" type="matrix" values="0 0 0 0 0 0 0 0 0 0 0 0 0 0 0 0 0 0 127 0"/>
<feOffset dy="4"/>
<feGaussianBlur stdDeviation="5.5"/>
<feColorMatrix type="matrix" values="0 0 0 0 0.762496 0 0 0 0 0.231198 0 0 0 0 0.804167 0 0 0 0.44 0"/>
<feBlend mode="normal" in2="BackgroundImageFix" result="effect1_dropShadow"/>
<feBlend mode="normal" in="SourceGraphic" in2="effect1_dropShadow" result="shape"/>
</filter>
<filter id="filter6_d" x="122" y="82" width="79" height="76" filterUnits="userSpaceOnUse" color-interpolation-filters="sRGB">
<feFlood flood-opacity="0" result="BackgroundImageFix"/>
<feColorMatrix in="SourceAlpha" type="matrix" values="0 0 0 0 0 0 0 0 0 0 0 0 0 0 0 0 0 0 127 0"/>
<feOffset dy="4"/>
<feGaussianBlur stdDeviation="5.5"/>
<feColorMatrix type="matrix" values="0 0 0 0 0.762496 0 0 0 0 0.231198 0 0 0 0 0.804167 0 0 0 0.44 0"/>
<feBlend mode="normal" in2="BackgroundImageFix" result="effect1_dropShadow"/>
<feBlend mode="normal" in="SourceGraphic" in2="effect1_dropShadow" result="shape"/>
</filter>
<filter id="filter7_d" x="0" y="164" width="324" height="64" filterUnits="userSpaceOnUse" color-interpolation-filters="sRGB">
<feFlood flood-opacity="0" result="BackgroundImageFix"/>
<feColorMatrix in="SourceAlpha" type="matrix" values="0 0 0 0 0 0 0 0 0 0 0 0 0 0 0 0 0 0 127 0"/>
<feOffset dy="4"/>
<feGaussianBlur stdDeviation="5.5"/>
<feColorMatrix type="matrix" values="0 0 0 0 0.762496 0 0 0 0 0.231198 0 0 0 0 0.804167 0 0 0 0.44 0"/>
<feBlend mode="normal" in2="BackgroundImageFix" result="effect1_dropShadow"/>
<feBlend mode="normal" in="SourceGraphic" in2="effect1_dropShadow" result="shape"/>
</filter>
</defs>
</svg>
