{
    "asset" : {
        "generator" : "Khronos glTF Blender I/O v1.4.40",
        "version" : "2.0"
    },
    "scene" : 0,
    "scenes" : [
        {
            "extras" : {
                "glTF2ExportSettings" : {
                    "export_apply" : 1,
                    "export_extras" : 1,
                    "export_format" : "GLTF_EMBEDDED",
                    "export_tangents" : 1
                }
            },
            "name" : "Scene",
            "nodes" : [
                2
            ]
        }
    ],
    "nodes" : [
        {
            "mesh" : 0,
            "name" : "Cube.001",
            "rotation" : [
                0.70710688829422,
                0,
                0,
                0.7071066498756409
            ],
            "scale" : [
                6.596508979797363,
                3.467449426651001,
                13.47990894317627
            ],
            "translation" : [
                0.12796510756015778,
                -0.7194815874099731,
                -0.18753543496131897
            ]
        },
        {
            "mesh" : 1,
            "name" : "Cube.003",
            "rotation" : [
                0.70710688829422,
                0,
                0,
                0.7071066498756409
            ],
            "scale" : [
                6.596508979797363,
                3.467449426651001,
                13.47990894317627
            ],
            "translation" : [
                0,
                -0.8896565437316895,
                -0.6369515657424927
            ]
        },
        {
            "children" : [
                0,
                1
            ],
            "name" : "multiprise",
            "scale" : [
                0.151595339179039,
                0.07418447732925415,
                0.288396418094635
            ],
            "translation" : [
                0,
                0.06599870324134827,
                0.18369455635547638
            ]
        }
    ],
    "animations" : [
        {
            "channels" : [
                {
                    "sampler" : 0,
                    "target" : {
                        "node" : 0,
                        "path" : "translation"
                    }
                },
                {
                    "sampler" : 1,
                    "target" : {
                        "node" : 0,
                        "path" : "scale"
                    }
                }
            ],
            "name" : "Cube.001Action",
            "samplers" : [
                {
                    "input" : 8,
                    "interpolation" : "LINEAR",
                    "output" : 9
                },
                {
                    "input" : 8,
                    "interpolation" : "LINEAR",
                    "output" : 10
                }
            ]
        }
    ],
    "materials" : [
        {
            "alphaMode" : "BLEND",
            "doubleSided" : true,
            "name" : "None.001",
            "pbrMetallicRoughness" : {
                "baseColorFactor" : [
                    0.7304009795188904,
                    0.9426425099372864,
                    1,
                    0.5
                ],
                "metallicFactor" : 0,
                "roughnessFactor" : 0.5
            }
        },
        {
            "doubleSided" : true,
            "name" : "None",
            "pbrMetallicRoughness" : {
                "baseColorFactor" : [
                    0.800000011920929,
                    0.800000011920929,
                    0.800000011920929,
                    1
                ],
                "metallicFactor" : 0,
                "roughnessFactor" : 0.2546440064907074
            }
        }
    ],
    "meshes" : [
        {
            "name" : "Cube.001",
            "primitives" : [
                {
                    "attributes" : {
                        "POSITION" : 0,
                        "NORMAL" : 1,
                        "TEXCOORD_0" : 2
                    },
                    "indices" : 3,
                    "material" : 0
                }
            ]
        },
        {
            "name" : "Cube.003",
            "primitives" : [
                {
                    "attributes" : {
                        "POSITION" : 4,
                        "NORMAL" : 5,
                        "TEXCOORD_0" : 6
                    },
                    "indices" : 7,
                    "material" : 1
                }
            ]
        }
    ],
    "accessors" : [
        {
            "bufferView" : 0,
            "componentType" : 5126,
            "count" : 2967,
            "max" : [
                0.01943822018802166,
                0.2564902901649475,
                0.012893361039459705
            ],
            "min" : [
                -0.019389795139431953,
                -0.12960770726203918,
                -0.016616638749837875
            ],
            "type" : "VEC3"
        },
        {
            "bufferView" : 1,
            "componentType" : 5126,
            "count" : 2967,
            "type" : "VEC3"
        },
        {
            "bufferView" : 2,
            "componentType" : 5126,
            "count" : 2967,
            "type" : "VEC2"
        },
        {
            "bufferView" : 3,
            "componentType" : 5123,
            "count" : 5808,
            "type" : "SCALAR"
        },
        {
            "bufferView" : 4,
            "componentType" : 5126,
            "count" : 2967,
            "max" : [
                0.03883713483810425,
                0.38609999418258667,
                0.0002690000110305846
            ],
            "min" : [
                9.119510650634766e-06,
                1.9999999949504854e-06,
                -0.02924099937081337
            ],
            "type" : "VEC3"
        },
        {
            "bufferView" : 5,
            "componentType" : 5126,
            "count" : 2967,
            "type" : "VEC3"
        },
        {
            "bufferView" : 6,
            "componentType" : 5126,
            "count" : 2967,
            "type" : "VEC2"
        },
        {
            "bufferView" : 7,
            "componentType" : 5123,
            "count" : 5808,
            "type" : "SCALAR"
        },
        {
            "bufferView" : 8,
            "componentType" : 5126,
            "count" : 91,
            "max" : [
                3.75
            ],
            "min" : [
                0
            ],
            "type" : "SCALAR"
        },
        {
            "bufferView" : 9,
            "componentType" : 5126,
            "count" : 91,
            "type" : "VEC3"
        },
        {
            "bufferView" : 10,
            "componentType" : 5126,
            "count" : 91,
            "type" : "VEC3"
        }
    ],
    "bufferViews" : [
        {
            "buffer" : 0,
            "byteLength" : 35604,
            "byteOffset" : 0
        },
        {
            "buffer" : 0,
            "byteLength" : 35604,
            "byteOffset" : 35604
        },
        {
            "buffer" : 0,
            "byteLength" : 23736,
            "byteOffset" : 71208
        },
        {
            "buffer" : 0,
            "byteLength" : 11616,
            "byteOffset" : 94944
        },
        {
            "buffer" : 0,
            "byteLength" : 35604,
            "byteOffset" : 106560
        },
        {
            "buffer" : 0,
            "byteLength" : 35604,
            "byteOffset" : 142164
        },
        {
            "buffer" : 0,
            "byteLength" : 23736,
            "byteOffset" : 177768
        },
        {
            "buffer" : 0,
            "byteLength" : 11616,
            "byteOffset" : 201504
        },
        {
            "buffer" : 0,
            "byteLength" : 364,
            "byteOffset" : 213120
        },
        {
            "buffer" : 0,
            "byteLength" : 1092,
            "byteOffset" : 213484
        },
        {
            "buffer" : 0,
            "byteLength" : 1092,
            "byteOffset" : 214576
        }
    ],
    "buffers" : [
        {
            "byteLength" : 215668,
            "uri" : "data:application/octet-stream;base64,"
        }
    ]
}
